<svg width="28" height="28" viewBox="0 0 28 28" fill="none" xmlns="http://www.w3.org/2000/svg">
<path fill-rule="evenodd" clip-rule="evenodd" d="M5.98692 2.51851C4.98545 3.21876 4.07986 4.04669 3.29373 4.97868C6.50624 4.68043 10.5876 5.16743 15.3261 7.53668C20.3861 10.0666 24.4607 10.1522 27.2964 9.60518C27.039 8.82615 26.7151 8.07743 26.3314 7.36567C23.0853 7.70804 18.9238 7.25486 14.0739 4.82999C10.9942 3.29012 8.27944 2.65581 5.98692 2.51851ZM24.4352 4.66665C21.8717 1.8025 18.1464 0 14 0C12.7823 0 11.6009 0.155475 10.4746 0.447636C12 0.86386 13.6205 1.47279 15.3261 2.32559C18.8769 4.10097 21.9425 4.67261 24.4352 4.66665ZM27.9026 12.3397C24.4768 13.0161 19.7462 12.8772 14.0739 10.0411C8.77098 7.38961 4.55031 7.423 1.70373 8.05559C1.5568 8.08821 1.41333 8.12251 1.27332 8.15821C0.900635 8.96874 0.603144 9.82106 0.389692 10.7061C0.617671 10.6452 0.853252 10.5873 1.09631 10.5333C4.5497 9.7659 9.42905 9.79922 15.3261 12.7478C20.6291 15.3992 24.8497 15.3658 27.6963 14.7332C27.7939 14.7116 27.89 14.6892 27.9845 14.6661C27.9948 14.4454 28 14.2233 28 14C28 13.4382 27.967 12.8842 27.9026 12.3397ZM27.5274 17.6206C24.1348 18.2137 19.5419 17.9861 14.0739 15.2522C8.77098 12.6007 4.55031 12.6341 1.70373 13.2667C1.07188 13.407 0.503468 13.578 0.002051 13.7586C0.000683901 13.8389 0 13.9194 0 14C0 21.732 6.26801 28 14 28C20.48 28 25.9317 23.5976 27.5274 17.6206Z" fill="url(#paint0_linear_42_198)"/>
<defs>
<linearGradient id="paint0_linear_42_198" x1="14" y1="0" x2="14" y2="28" gradientUnits="userSpaceOnUse">
<stop stop-color="#5399E9"/>
<stop offset="0.586538" stop-color="#5399E9"/>
<stop offset="1" stop-color="#824EF1"/>
</linearGradient>
</defs>
</svg>
