<svg width="219" height="106" viewBox="0 0 219 106" fill="none" xmlns="http://www.w3.org/2000/svg">
<path d="M38.3523 93.7C36.619 94.5667 35.1523 94.8333 33.9523 94.5C32.819 94.1 32.1523 93.4333 31.9523 92.5C30.6857 93.0333 29.319 93.2 27.8523 93C26.3857 92.8 25.119 92.2667 24.0523 91.4C22.9857 90.5333 22.4523 89.3333 22.4523 87.8C22.4523 89.4 21.9857 90.6667 21.0523 91.6C20.119 92.5333 18.9523 93.1667 17.5523 93.5C16.219 93.8333 14.8523 93.8333 13.4523 93.5C12.119 93.1667 10.9857 92.5333 10.0523 91.6C9.11901 90.6667 8.65234 89.4 8.65234 87.8C7.38568 89.2 6.31901 89.9333 5.45234 90C4.58568 90.0667 4.11901 89.6667 4.05234 88.8C3.98568 87.8667 4.55234 86.7 5.75234 85.3C4.15234 85.3 2.95234 84.8333 2.15234 83.9C1.35234 82.9 0.952344 81.8 0.952344 80.6C0.952344 79.3333 1.35234 78.2333 2.15234 77.3C2.95234 76.3 4.15234 75.8 5.75234 75.8C4.01901 74.8667 2.91901 73.8 2.45234 72.6C1.98568 71.3333 2.01901 70.1667 2.55234 69.1C3.08568 68.0333 3.98568 67.3333 5.25234 67C6.58568 66.6 8.11901 66.8667 9.85234 67.8C8.58568 66.8 7.88568 65.6 7.75234 64.2C7.68568 62.8 7.98568 61.4 8.65234 60C9.38568 58.5333 10.319 57.3 11.4523 56.3C12.6523 55.2333 13.9523 54.6 15.3523 54.4C16.7523 54.1333 18.0857 54.4667 19.3523 55.4C17.8857 54.3333 17.019 53.2 16.7523 52C16.5523 50.8 16.7523 49.8 17.3523 49C18.019 48.1333 18.9523 47.6667 20.1523 47.6C21.419 47.5333 22.7523 48.0333 24.1523 49.1C22.619 47.9667 21.7523 46.7667 21.5523 45.5C21.3523 44.1667 21.5857 43.0667 22.2523 42.2C22.9857 41.2667 23.9857 40.7333 25.2523 40.6C26.5857 40.4667 27.9857 40.9667 29.4523 42.1C28.519 40.9 28.2523 39.6333 28.6523 38.3C29.119 36.9 29.9523 35.7333 31.1523 34.8C32.3523 33.8667 33.6523 33.3667 35.0523 33.3C36.4523 33.1667 37.6523 33.7333 38.6523 35C38.6523 33.0667 39.2857 31.6333 40.5523 30.7C41.8857 29.7667 43.3857 29.3 45.0523 29.3C46.719 29.3 48.1857 29.7667 49.4523 30.7C50.7857 31.6333 51.4523 33.0667 51.4523 35C52.519 34.2667 53.5523 34.1 54.5523 34.5C55.5523 34.9 56.3857 35.6 57.0523 36.6C57.719 37.5333 58.019 38.5333 57.9523 39.6C57.9523 40.6667 57.419 41.5667 56.3523 42.3C58.1523 42.3 59.519 42.8667 60.4523 44C61.3857 45.1333 61.8523 46.4333 61.8523 47.9C61.8523 49.3667 61.3857 50.6667 60.4523 51.8C59.519 52.9333 58.1523 53.5 56.3523 53.5C58.1523 53.5 59.519 54 60.4523 55C61.3857 55.9333 61.8523 57.0333 61.8523 58.3C61.8523 59.5667 61.3857 60.7 60.4523 61.7C59.519 62.6333 58.1523 63.1 56.3523 63.1C57.7523 63.1 58.819 63.5667 59.5523 64.5C60.3523 65.3667 60.7857 66.3667 60.8523 67.5C62.119 67.4333 63.2523 67.9333 64.2523 69C65.319 70 65.819 71.5 65.7523 73.5C67.2857 72.7 68.4857 72.5667 69.3523 73.1C70.2857 73.5667 70.6523 74.3 70.4523 75.3C70.319 76.3 69.4523 77.1667 67.8523 77.9C69.319 78.3667 70.2523 79.2333 70.6523 80.5C71.0523 81.7 71.019 82.9667 70.5523 84.3C70.1523 85.5667 69.419 86.6 68.3523 87.4C67.3523 88.1333 66.119 88.2667 64.6523 87.8C65.0523 89.6667 64.819 91.1333 63.9523 92.2C63.1523 93.2667 62.1523 93.8333 60.9523 93.9C60.619 94.3667 60.0523 94.8 59.2523 95.2C58.519 95.5333 57.5523 95.7 56.3523 95.7C57.819 97.1667 58.519 98.4333 58.4523 99.5C58.3857 100.5 57.819 101.033 56.7523 101.1C55.7523 101.167 54.519 100.467 53.0523 99C53.0523 100.6 52.5523 101.833 51.5523 102.7C50.5523 103.633 49.319 104.167 47.8523 104.3C46.3857 104.5 44.8857 104.233 43.3523 103.5C41.8857 102.833 40.6523 101.7 39.6523 100.1C38.719 98.5 38.2857 96.3667 38.3523 93.7ZM29.1523 74.6C29.1523 73.2 29.5857 72.2667 30.4523 71.8C31.319 71.3333 32.1523 71.3333 32.9523 71.8C33.819 72.2667 34.2523 73.2 34.2523 74.6C34.2523 73.8 34.419 73.1667 34.7523 72.7C35.0857 72.2333 35.4857 71.9333 35.9523 71.8C35.6857 70.8 35.7857 69.7667 36.2523 68.7C36.7857 67.6333 37.719 67.1 39.0523 67.1C38.319 67.1 37.7523 66.7333 37.3523 66C36.9523 65.2 36.6857 64.2667 36.5523 63.2C36.4857 62.0667 36.5523 61 36.7523 60C35.6857 60.3333 34.6523 60.3 33.6523 59.9C33.8523 60.8333 33.519 61.5333 32.6523 62C31.7857 62.4 30.719 62.1333 29.4523 61.2C30.119 61.6667 30.419 62.3 30.3523 63.1C30.2857 63.9 29.9857 64.6667 29.4523 65.4C28.9857 66.0667 28.3857 66.5667 27.6523 66.9C26.919 67.1667 26.1857 67.0667 25.4523 66.6C26.2523 67.1333 26.619 67.9 26.5523 68.9C26.5523 69.8333 26.3857 70.7667 26.0523 71.7C26.719 71.4333 27.3857 71.5333 28.0523 72C28.7857 72.4667 29.1523 73.3333 29.1523 74.6ZM107.488 99.9C107.221 101.433 106.554 102.5 105.488 103.1C104.421 103.7 103.254 103.9 101.988 103.7C100.721 103.5 99.6542 102.933 98.7875 102C97.9875 101.133 97.7208 99.9333 97.9875 98.4C97.0542 99.8667 95.7875 100.633 94.1875 100.7C92.6542 100.7 91.1542 100.267 89.6875 99.4C88.2208 98.4667 87.1208 97.3 86.3875 95.9C85.7208 94.4333 85.8542 93 86.7875 91.6C84.8542 92.8667 83.2875 93.3333 82.0875 93C80.9542 92.6 80.4542 91.8 80.5875 90.6C80.7208 89.4 81.7208 88.1667 83.5875 86.9C82.3208 87.1667 81.1875 86.9 80.1875 86.1C79.2542 85.2333 78.5208 84.1333 77.9875 82.8C77.4542 81.4 77.1875 79.9667 77.1875 78.5C77.1875 77.0333 77.4542 75.7667 77.9875 74.7C78.5875 73.5667 79.5542 72.8667 80.8875 72.6C78.9542 72.6 77.4875 72.2 76.4875 71.4C75.5542 70.5333 75.0875 69.5333 75.0875 68.4C75.0875 67.2667 75.5542 66.2667 76.4875 65.4C77.4208 64.5333 78.8542 64.1 80.7875 64.1C78.9875 63.9667 77.6875 63.3 76.8875 62.1C76.0875 60.8333 75.7208 59.4333 75.7875 57.9C75.9208 56.3667 76.4875 55.0667 77.4875 54C78.4875 52.8667 79.8875 52.3667 81.6875 52.5C80.2875 51.8333 79.4208 50.9333 79.0875 49.8C78.7542 48.6667 78.8208 47.5667 79.2875 46.5C79.8208 45.3667 80.6208 44.5333 81.6875 44C82.8208 43.4667 84.0875 43.5 85.4875 44.1C84.8875 43.3 84.7875 42.4 85.1875 41.4C85.6542 40.4 86.3875 39.4333 87.3875 38.5C88.4542 37.5 89.5875 36.7 90.7875 36.1C92.0542 35.4333 93.2208 35.0667 94.2875 35C95.4208 34.9333 96.2542 35.3 96.7875 36.1C96.3875 34.4333 96.3875 33.1333 96.7875 32.2C97.2542 31.2 97.8875 30.6 98.6875 30.4C99.5542 30.2 100.388 30.4333 101.188 31.1C102.054 31.7667 102.688 32.9 103.087 34.5C103.087 32.7667 103.754 31.4667 105.088 30.6C106.421 29.7333 107.954 29.3 109.688 29.3C111.421 29.3 112.954 29.7333 114.288 30.6C115.621 31.4667 116.288 32.8 116.288 34.6C116.888 33 117.921 32.0333 119.388 31.7C120.921 31.3667 122.488 31.5 124.088 32.1C125.688 32.7 126.921 33.6333 127.788 34.9C128.721 36.1 128.888 37.5 128.288 39.1C129.421 38.0333 130.588 37.6 131.788 37.8C133.054 37.9333 134.121 38.4667 134.988 39.4C135.854 40.2667 136.321 41.3333 136.388 42.6C136.521 43.8 135.988 44.9667 134.788 46.1C136.521 45.5667 137.954 45.7 139.088 46.5C140.288 47.3 141.088 48.3667 141.488 49.7C141.954 51.0333 141.888 52.3667 141.288 53.7C140.754 54.9667 139.621 55.8667 137.888 56.4C139.221 56.4 140.288 56.9333 141.088 58C141.954 59 142.521 60.2667 142.788 61.8C143.121 63.3333 143.154 64.8667 142.888 66.4C142.688 67.9333 142.188 69.2333 141.388 70.3C140.588 71.3667 139.488 71.9 138.088 71.9C139.221 72.1667 140.021 72.9 140.488 74.1C140.954 75.2333 141.121 76.6 140.988 78.2C140.921 79.8 140.621 81.3667 140.088 82.9C139.554 84.3667 138.854 85.5667 137.988 86.5C137.121 87.4333 136.121 87.8 134.988 87.6C136.254 88.8667 136.754 90.3 136.488 91.9C136.221 93.4333 135.488 94.8 134.288 96C133.088 97.1333 131.688 97.8333 130.088 98.1C128.554 98.3 127.154 97.7333 125.888 96.4C126.821 98.7333 126.954 100.5 126.288 101.7C125.688 102.833 124.754 103.167 123.488 102.7C122.221 102.3 121.154 100.933 120.288 98.6C120.488 100.533 120.088 102.033 119.088 103.1C118.154 104.167 116.888 104.767 115.288 104.9C113.754 105.1 112.254 104.8 110.788 104C109.321 103.2 108.221 101.833 107.488 99.9ZM100.888 71C101.954 71 102.688 71.2667 103.087 71.8C103.554 72.2667 103.654 72.8 103.388 73.4C103.188 74 102.654 74.4 101.788 74.6C102.588 74.6667 103.321 75.1667 103.988 76.1C104.654 76.9667 105.154 78 105.488 79.2C105.821 80.4 105.888 81.5 105.688 82.5C106.288 81.9667 106.788 81.7333 107.188 81.8C107.588 81.8667 107.788 82.2 107.788 82.8C108.388 81.9333 109.254 81.6333 110.388 81.9C111.521 82.1 112.888 82.7 114.488 83.7C113.288 82.7667 112.921 81.7667 113.388 80.7C113.854 79.6333 114.754 79.2 116.088 79.4C115.421 79 115.054 78.4 114.988 77.6C114.988 76.7333 115.221 76 115.688 75.4C116.221 74.7333 116.988 74.4333 117.988 74.5C117.121 74.5 116.488 74.1667 116.088 73.5C115.688 72.8333 115.488 72.0667 115.488 71.2C115.488 70.3333 115.688 69.6 116.088 69C116.554 68.3333 117.221 68 118.088 68C117.288 68 116.654 67.5667 116.188 66.7C115.788 65.7667 115.554 64.6667 115.488 63.4C115.421 62.1333 115.521 61 115.788 60C116.121 58.9333 116.654 58.2667 117.388 58C116.654 58 115.888 57.6 115.088 56.8C114.354 55.9333 113.721 54.9333 113.188 53.8C112.721 52.6 112.454 51.5 112.388 50.5C111.921 51.1667 111.421 51.5 110.888 51.5C110.421 51.5 110.088 51.2 109.888 50.6C109.421 51.4667 108.688 52.0333 107.688 52.3C106.754 52.5667 105.854 52.4 104.988 51.8C105.121 52.6 104.888 53.4 104.288 54.2C103.754 54.9333 103.054 55.2667 102.188 55.2C102.921 55.5333 103.421 56.1667 103.688 57.1C104.021 57.9667 104.121 58.9333 103.988 60C103.921 61 103.621 61.8667 103.087 62.6C102.554 63.3333 101.821 63.7 100.888 63.7C101.754 63.7 102.421 64.0667 102.888 64.8C103.354 65.5333 103.588 66.4 103.588 67.4C103.588 68.3333 103.354 69.1667 102.888 69.9C102.488 70.6333 101.821 71 100.888 71ZM183.665 93.7C181.932 94.5667 180.465 94.8333 179.265 94.5C178.132 94.1 177.465 93.4333 177.265 92.5C175.998 93.0333 174.632 93.2 173.165 93C171.698 92.8 170.432 92.2667 169.365 91.4C168.298 90.5333 167.765 89.3333 167.765 87.8C167.765 89.4 167.298 90.6667 166.365 91.6C165.432 92.5333 164.265 93.1667 162.865 93.5C161.532 93.8333 160.165 93.8333 158.765 93.5C157.432 93.1667 156.298 92.5333 155.365 91.6C154.432 90.6667 153.965 89.4 153.965 87.8C152.698 89.2 151.632 89.9333 150.765 90C149.898 90.0667 149.432 89.6667 149.365 88.8C149.298 87.8667 149.865 86.7 151.065 85.3C149.465 85.3 148.265 84.8333 147.465 83.9C146.665 82.9 146.265 81.8 146.265 80.6C146.265 79.3333 146.665 78.2333 147.465 77.3C148.265 76.3 149.465 75.8 151.065 75.8C149.332 74.8667 148.232 73.8 147.765 72.6C147.298 71.3333 147.332 70.1667 147.865 69.1C148.398 68.0333 149.298 67.3333 150.565 67C151.898 66.6 153.432 66.8667 155.165 67.8C153.898 66.8 153.198 65.6 153.065 64.2C152.998 62.8 153.298 61.4 153.965 60C154.698 58.5333 155.632 57.3 156.765 56.3C157.965 55.2333 159.265 54.6 160.665 54.4C162.065 54.1333 163.398 54.4667 164.665 55.4C163.198 54.3333 162.332 53.2 162.065 52C161.865 50.8 162.065 49.8 162.665 49C163.332 48.1333 164.265 47.6667 165.465 47.6C166.732 47.5333 168.065 48.0333 169.465 49.1C167.932 47.9667 167.065 46.7667 166.865 45.5C166.665 44.1667 166.898 43.0667 167.565 42.2C168.298 41.2667 169.298 40.7333 170.565 40.6C171.898 40.4667 173.298 40.9667 174.765 42.1C173.832 40.9 173.565 39.6333 173.965 38.3C174.432 36.9 175.265 35.7333 176.465 34.8C177.665 33.8667 178.965 33.3667 180.365 33.3C181.765 33.1667 182.965 33.7333 183.965 35C183.965 33.0667 184.598 31.6333 185.865 30.7C187.198 29.7667 188.698 29.3 190.365 29.3C192.032 29.3 193.498 29.7667 194.765 30.7C196.098 31.6333 196.765 33.0667 196.765 35C197.832 34.2667 198.865 34.1 199.865 34.5C200.865 34.9 201.698 35.6 202.365 36.6C203.032 37.5333 203.332 38.5333 203.265 39.6C203.265 40.6667 202.732 41.5667 201.665 42.3C203.465 42.3 204.832 42.8667 205.765 44C206.698 45.1333 207.165 46.4333 207.165 47.9C207.165 49.3667 206.698 50.6667 205.765 51.8C204.832 52.9333 203.465 53.5 201.665 53.5C203.465 53.5 204.832 54 205.765 55C206.698 55.9333 207.165 57.0333 207.165 58.3C207.165 59.5667 206.698 60.7 205.765 61.7C204.832 62.6333 203.465 63.1 201.665 63.1C203.065 63.1 204.132 63.5667 204.865 64.5C205.665 65.3667 206.098 66.3667 206.165 67.5C207.432 67.4333 208.565 67.9333 209.565 69C210.632 70 211.132 71.5 211.065 73.5C212.598 72.7 213.798 72.5667 214.665 73.1C215.598 73.5667 215.965 74.3 215.765 75.3C215.632 76.3 214.765 77.1667 213.165 77.9C214.632 78.3667 215.565 79.2333 215.965 80.5C216.365 81.7 216.332 82.9667 215.865 84.3C215.465 85.5667 214.732 86.6 213.665 87.4C212.665 88.1333 211.432 88.2667 209.965 87.8C210.365 89.6667 210.132 91.1333 209.265 92.2C208.465 93.2667 207.465 93.8333 206.265 93.9C205.932 94.3667 205.365 94.8 204.565 95.2C203.832 95.5333 202.865 95.7 201.665 95.7C203.132 97.1667 203.832 98.4333 203.765 99.5C203.698 100.5 203.132 101.033 202.065 101.1C201.065 101.167 199.832 100.467 198.365 99C198.365 100.6 197.865 101.833 196.865 102.7C195.865 103.633 194.632 104.167 193.165 104.3C191.698 104.5 190.198 104.233 188.665 103.5C187.198 102.833 185.965 101.7 184.965 100.1C184.032 98.5 183.598 96.3667 183.665 93.7ZM174.465 74.6C174.465 73.2 174.898 72.2667 175.765 71.8C176.632 71.3333 177.465 71.3333 178.265 71.8C179.132 72.2667 179.565 73.2 179.565 74.6C179.565 73.8 179.732 73.1667 180.065 72.7C180.398 72.2333 180.798 71.9333 181.265 71.8C180.998 70.8 181.098 69.7667 181.565 68.7C182.098 67.6333 183.032 67.1 184.365 67.1C183.632 67.1 183.065 66.7333 182.665 66C182.265 65.2 181.998 64.2667 181.865 63.2C181.798 62.0667 181.865 61 182.065 60C180.998 60.3333 179.965 60.3 178.965 59.9C179.165 60.8333 178.832 61.5333 177.965 62C177.098 62.4 176.032 62.1333 174.765 61.2C175.432 61.6667 175.732 62.3 175.665 63.1C175.598 63.9 175.298 64.6667 174.765 65.4C174.298 66.0667 173.698 66.5667 172.965 66.9C172.232 67.1667 171.498 67.0667 170.765 66.6C171.565 67.1333 171.932 67.9 171.865 68.9C171.865 69.8333 171.698 70.7667 171.365 71.7C172.032 71.4333 172.698 71.5333 173.365 72C174.098 72.4667 174.465 73.3333 174.465 74.6Z" fill="white"/>
<path d="M60.68 15.0341C60.6 15.4341 60.36 15.7007 59.96 15.8341C59.56 15.9407 59.12 15.9541 58.64 15.8741C58.16 15.7674 57.7467 15.5807 57.4 15.3141C57.08 15.0207 56.96 14.6874 57.04 14.3141C56.6667 14.5807 56.2667 14.6607 55.84 14.5541C55.3867 14.4207 54.9733 14.1674 54.6 13.7941C54.2 13.3941 53.9067 12.9541 53.72 12.4741C53.5067 11.9941 53.44 11.5541 53.52 11.1541C53.2 11.4741 52.8667 11.6207 52.52 11.5941C52.1467 11.5407 51.8533 11.3541 51.64 11.0341C51.4267 10.7141 51.3867 10.2874 51.52 9.75406C51.3067 10.2074 50.9067 10.5007 50.32 10.6341C49.7067 10.7407 49.0667 10.7407 48.4 10.6341C47.7067 10.5274 47.1333 10.3141 46.68 9.99406C46.2 9.6474 46 9.22073 46.08 8.71406C46.0267 9.08739 45.7067 9.38073 45.12 9.59406C44.5067 9.80739 43.8 9.94073 43 9.99406C42.2 10.0207 41.48 9.9674 40.84 9.83406C40.2 9.70073 39.8133 9.46073 39.68 9.11406C39.7867 9.7274 39.6133 10.2341 39.16 10.6341C38.7067 11.0341 38.1733 11.2741 37.56 11.3541C36.9467 11.4074 36.44 11.2341 36.04 10.8341C36.1467 11.2607 36.1067 11.6874 35.92 12.1141C35.7067 12.5407 35.4133 12.9141 35.04 13.2341C34.64 13.5274 34.2133 13.7007 33.76 13.7541C33.3067 13.8074 32.9067 13.6607 32.56 13.3141C32.6933 13.7141 32.56 14.1007 32.16 14.4741C31.7333 14.8474 31.2 15.1541 30.56 15.3941C29.92 15.6074 29.32 15.7007 28.76 15.6741C28.1733 15.6474 27.8133 15.4341 27.68 15.0341C27.3067 15.3274 27 15.4474 26.76 15.3941C26.4933 15.3407 26.3733 15.1941 26.4 14.9541C26.4 14.6874 26.6 14.4074 27 14.1141C26.6267 14.0074 26.3867 13.7274 26.28 13.2741C26.1733 12.8207 26.1733 12.3007 26.28 11.7141C26.36 11.1007 26.5333 10.5274 26.8 9.99406C27.04 9.43406 27.3333 8.99406 27.68 8.67406C28 8.35406 28.3467 8.2474 28.72 8.35406C28.5333 8.11406 28.5333 7.79406 28.72 7.39406C28.9067 6.99406 29.2133 6.5674 29.64 6.11406C30.0667 5.66073 30.5333 5.26073 31.04 4.91406C31.5467 4.54073 32.0133 4.2874 32.44 4.15406C32.8667 4.02073 33.1867 4.07406 33.4 4.31406C33.1867 3.75406 33.2133 3.27406 33.48 2.87406C33.7467 2.47406 34.12 2.19406 34.6 2.03406C35.08 1.8474 35.56 1.83406 36.04 1.99406C36.4933 2.12739 36.8133 2.46073 37 2.99406C36.9467 2.62073 37.12 2.30073 37.52 2.03406C37.8933 1.76739 38.3867 1.55406 39 1.39406C39.6133 1.23406 40.24 1.15406 40.88 1.15406C41.4933 1.15406 42.0267 1.23406 42.48 1.39406C42.9067 1.55406 43.1467 1.82073 43.2 2.19406C43.2 1.58073 43.4133 1.18073 43.84 0.994061C44.24 0.780728 44.6533 0.780728 45.08 0.994061C45.5067 1.18073 45.72 1.56739 45.72 2.15406C45.7733 1.67406 46.08 1.35406 46.64 1.19406C47.2 1.00739 47.84 0.954061 48.56 1.03406C49.28 1.08739 49.9067 1.27406 50.44 1.59406C50.9467 1.88739 51.1733 2.26073 51.12 2.71406C51.28 2.15406 51.5867 1.79406 52.04 1.63406C52.4667 1.44739 52.92 1.42073 53.4 1.55406C53.8533 1.68739 54.2133 1.95406 54.48 2.35406C54.7467 2.72739 54.8 3.19406 54.64 3.75406C54.88 3.24739 55.1733 2.96739 55.52 2.91406C55.8667 2.86073 56.1333 2.98073 56.32 3.27406C56.5067 3.56739 56.48 3.96739 56.24 4.47406C56.5333 4.15406 56.9067 4.03406 57.36 4.11406C57.8133 4.19406 58.28 4.40739 58.76 4.75406C59.2667 5.07406 59.7067 5.46073 60.08 5.91406C60.4533 6.36739 60.7067 6.82073 60.84 7.27406C60.9733 7.70073 60.8933 8.07406 60.6 8.39406C61.24 8.07406 61.76 8.06073 62.16 8.35406C62.56 8.64739 62.7467 9.03406 62.72 9.51406C62.6933 9.99406 62.36 10.3941 61.72 10.7141C62.28 10.6074 62.72 10.7541 63.04 11.1541C63.36 11.5274 63.5067 12.0074 63.48 12.5941C63.48 13.1541 63.2533 13.6741 62.8 14.1541C62.3733 14.6341 61.6667 14.9274 60.68 15.0341Z" fill="white"/>
<path d="M201.68 15.0341C201.6 15.4341 201.36 15.7007 200.96 15.8341C200.56 15.9407 200.12 15.9541 199.64 15.8741C199.16 15.7674 198.747 15.5807 198.4 15.3141C198.08 15.0207 197.96 14.6874 198.04 14.3141C197.667 14.5807 197.267 14.6607 196.84 14.5541C196.387 14.4207 195.973 14.1674 195.6 13.7941C195.2 13.3941 194.907 12.9541 194.72 12.4741C194.507 11.9941 194.44 11.5541 194.52 11.1541C194.2 11.4741 193.867 11.6207 193.52 11.5941C193.147 11.5407 192.853 11.3541 192.64 11.0341C192.427 10.7141 192.387 10.2874 192.52 9.75406C192.307 10.2074 191.907 10.5007 191.32 10.6341C190.707 10.7407 190.067 10.7407 189.4 10.6341C188.707 10.5274 188.133 10.3141 187.68 9.99406C187.2 9.6474 187 9.22073 187.08 8.71406C187.027 9.08739 186.707 9.38073 186.12 9.59406C185.507 9.80739 184.8 9.94073 184 9.99406C183.2 10.0207 182.48 9.9674 181.84 9.83406C181.2 9.70073 180.813 9.46073 180.68 9.11406C180.787 9.7274 180.613 10.2341 180.16 10.6341C179.707 11.0341 179.173 11.2741 178.56 11.3541C177.947 11.4074 177.44 11.2341 177.04 10.8341C177.147 11.2607 177.107 11.6874 176.92 12.1141C176.707 12.5407 176.413 12.9141 176.04 13.2341C175.64 13.5274 175.213 13.7007 174.76 13.7541C174.307 13.8074 173.907 13.6607 173.56 13.3141C173.693 13.7141 173.56 14.1007 173.16 14.4741C172.733 14.8474 172.2 15.1541 171.56 15.3941C170.92 15.6074 170.32 15.7007 169.76 15.6741C169.173 15.6474 168.813 15.4341 168.68 15.0341C168.307 15.3274 168 15.4474 167.76 15.3941C167.493 15.3407 167.373 15.1941 167.4 14.9541C167.4 14.6874 167.6 14.4074 168 14.1141C167.627 14.0074 167.387 13.7274 167.28 13.2741C167.173 12.8207 167.173 12.3007 167.28 11.7141C167.36 11.1007 167.533 10.5274 167.8 9.99406C168.04 9.43406 168.333 8.99406 168.68 8.67406C169 8.35406 169.347 8.2474 169.72 8.35406C169.533 8.11406 169.533 7.79406 169.72 7.39406C169.907 6.99406 170.213 6.5674 170.64 6.11406C171.067 5.66073 171.533 5.26073 172.04 4.91406C172.547 4.54073 173.013 4.2874 173.44 4.15406C173.867 4.02073 174.187 4.07406 174.4 4.31406C174.187 3.75406 174.213 3.27406 174.48 2.87406C174.747 2.47406 175.12 2.19406 175.6 2.03406C176.08 1.8474 176.56 1.83406 177.04 1.99406C177.493 2.12739 177.813 2.46073 178 2.99406C177.947 2.62073 178.12 2.30073 178.52 2.03406C178.893 1.76739 179.387 1.55406 180 1.39406C180.613 1.23406 181.24 1.15406 181.88 1.15406C182.493 1.15406 183.027 1.23406 183.48 1.39406C183.907 1.55406 184.147 1.82073 184.2 2.19406C184.2 1.58073 184.413 1.18073 184.84 0.994061C185.24 0.780728 185.653 0.780728 186.08 0.994061C186.507 1.18073 186.72 1.56739 186.72 2.15406C186.773 1.67406 187.08 1.35406 187.64 1.19406C188.2 1.00739 188.84 0.954061 189.56 1.03406C190.28 1.08739 190.907 1.27406 191.44 1.59406C191.947 1.88739 192.173 2.26073 192.12 2.71406C192.28 2.15406 192.587 1.79406 193.04 1.63406C193.467 1.44739 193.92 1.42073 194.4 1.55406C194.853 1.68739 195.213 1.95406 195.48 2.35406C195.747 2.72739 195.8 3.19406 195.64 3.75406C195.88 3.24739 196.173 2.96739 196.52 2.91406C196.867 2.86073 197.133 2.98073 197.32 3.27406C197.507 3.56739 197.48 3.96739 197.24 4.47406C197.533 4.15406 197.907 4.03406 198.36 4.11406C198.813 4.19406 199.28 4.40739 199.76 4.75406C200.267 5.07406 200.707 5.46073 201.08 5.91406C201.453 6.36739 201.707 6.82073 201.84 7.27406C201.973 7.70073 201.893 8.07406 201.6 8.39406C202.24 8.07406 202.76 8.06073 203.16 8.35406C203.56 8.64739 203.747 9.03406 203.72 9.51406C203.693 9.99406 203.36 10.3941 202.72 10.7141C203.28 10.6074 203.72 10.7541 204.04 11.1541C204.36 11.5274 204.507 12.0074 204.48 12.5941C204.48 13.1541 204.253 13.6741 203.8 14.1541C203.373 14.6341 202.667 14.9274 201.68 15.0341Z" fill="white"/>
</svg>
