<svg width="48" height="48" viewBox="0 0 48 48" fill="none" xmlns="http://www.w3.org/2000/svg">
<path d="M11.0755 20.5544C10.498 19.9604 9.54836 19.947 8.95438 20.5245C8.36041 21.102 8.34703 22.0516 8.92451 22.6456L11.0755 20.5544ZM24 36L22.9245 37.0456C23.2069 37.3361 23.5948 37.5 24 37.5C24.4052 37.5 24.7931 37.3361 25.0755 37.0456L24 36ZM39.0755 22.6456C39.653 22.0516 39.6396 21.102 39.0456 20.5245C38.4516 19.947 37.502 19.9604 36.9245 20.5544L39.0755 22.6456ZM13.4095 10.9544C12.832 10.3604 11.8824 10.347 11.2884 10.9245C10.6944 11.5019 10.681 12.4516 11.2585 13.0456L13.4095 10.9544ZM24 24L22.9245 25.0456C23.2069 25.3361 23.5948 25.5 24 25.5C24.4051 25.5 24.7931 25.3361 25.0755 25.0456L24 24ZM36.7415 13.0456C37.319 12.4516 37.3056 11.5019 36.7116 10.9245C36.1176 10.347 35.1679 10.3604 34.5905 10.9544L36.7415 13.0456ZM8.92451 22.6456L22.9245 37.0456L25.0755 34.9544L11.0755 20.5544L8.92451 22.6456ZM25.0755 37.0456L39.0755 22.6456L36.9245 20.5544L22.9245 34.9544L25.0755 37.0456ZM11.2585 13.0456L22.9245 25.0456L25.0755 22.9544L13.4095 10.9544L11.2585 13.0456ZM25.0755 25.0456L36.7415 13.0456L34.5905 10.9544L22.9245 22.9544L25.0755 25.0456Z" fill="white"/>
</svg>
