<svg width="147" height="48" viewBox="0 0 147 48" fill="none" xmlns="http://www.w3.org/2000/svg">
<path d="M13.5078 35.55C13.2078 36.1833 12.7411 36.6 12.1078 36.8C11.5078 36.9667 10.8411 36.9667 10.1078 36.8C9.40781 36.6 8.75781 36.3 8.15781 35.9C7.55781 35.4667 7.10781 34.95 6.80781 34.35C6.54115 33.75 6.55781 33.1333 6.85781 32.5C6.19115 32.9667 5.55781 33.1333 4.95781 33C4.35781 32.8333 3.87448 32.5 3.50781 32C3.14115 31.4667 2.97448 30.9 3.00781 30.3C3.07448 29.6667 3.44115 29.1167 4.10781 28.65C3.47448 28.7167 2.92448 28.5333 2.45781 28.1C2.02448 27.6333 1.69115 27.0333 1.45781 26.3C1.22448 25.5667 1.10781 24.8167 1.10781 24.05C1.14115 23.2833 1.30781 22.6167 1.60781 22.05C1.94115 21.4833 2.42448 21.1667 3.05781 21.1C2.29115 21.0667 1.69115 20.7833 1.25781 20.25C0.824479 19.6833 0.541146 19.0167 0.407813 18.25C0.307813 17.45 0.341146 16.6667 0.507813 15.9C0.707813 15.1333 1.04115 14.5 1.50781 14C1.97448 13.5 2.57448 13.25 3.30781 13.25C2.84115 13.0167 2.57448 12.6167 2.50781 12.05C2.47448 11.4833 2.57448 10.8667 2.80781 10.2C3.04115 9.53333 3.35781 8.91666 3.75781 8.35C4.19115 7.75 4.65781 7.31667 5.15781 7.05C5.65781 6.75 6.12448 6.71667 6.55781 6.95C5.92448 6.11666 5.67448 5.43333 5.80781 4.9C5.94115 4.36666 6.29115 4.1 6.85781 4.1C7.42448 4.1 8.02448 4.51666 8.65781 5.35C8.29115 4.41667 8.22448 3.63333 8.45781 3C8.69115 2.36666 9.09115 1.95 9.65781 1.75C10.2245 1.51667 10.8078 1.55 11.4078 1.85C12.0411 2.11666 12.5411 2.7 12.9078 3.6C12.8078 2.8 12.9245 2.16667 13.2578 1.7C13.5911 1.23333 14.0245 0.966665 14.5578 0.899997C15.0911 0.833331 15.5745 0.983331 16.0078 1.35C16.4745 1.68333 16.7745 2.25 16.9078 3.05C16.9745 2.28333 17.3078 1.71666 17.9078 1.35C18.5411 0.949998 19.2578 0.716665 20.0578 0.649997C20.8911 0.583331 21.7078 0.683332 22.5078 0.949999C23.3078 1.18333 23.9578 1.56666 24.4578 2.1C24.9578 2.6 25.1578 3.23333 25.0578 4C25.5578 2.86667 26.1245 2.21667 26.7578 2.05C27.3911 1.88333 27.8411 2.1 28.1078 2.7C28.4078 3.26666 28.3078 4.11666 27.8078 5.25C28.5411 4.25 29.2078 3.71667 29.8078 3.65C30.4078 3.58333 30.7578 3.85 30.8578 4.45C30.9578 5.01667 30.6411 5.8 29.9078 6.8C30.6411 6.23333 31.3078 5.98333 31.9078 6.05C32.5411 6.08333 33.0078 6.31667 33.3078 6.75C33.6411 7.15 33.7411 7.65 33.6078 8.25C33.4745 8.85 33.0245 9.43333 32.2578 10C32.9911 9.76666 33.5911 9.78333 34.0578 10.05C34.5245 10.2833 34.8245 10.6333 34.9578 11.1C35.0911 11.5333 35.0245 11.9833 34.7578 12.45C34.5245 12.8833 34.0411 13.2167 33.3078 13.45C33.9411 13.4167 34.4411 13.65 34.8078 14.15C35.2078 14.6167 35.4745 15.2167 35.6078 15.95C35.7745 16.65 35.8078 17.3667 35.7078 18.1C35.6078 18.8333 35.3745 19.45 35.0078 19.95C34.6745 20.45 34.1911 20.7167 33.5578 20.75C34.7911 20.75 35.6078 20.9833 36.0078 21.45C36.4078 21.8833 36.3911 22.3167 35.9578 22.75C35.5578 23.1833 34.7411 23.3833 33.5078 23.35C34.3078 23.4833 34.8578 23.8667 35.1578 24.5C35.4578 25.1 35.5411 25.75 35.4078 26.45C35.2745 27.15 34.9578 27.7333 34.4578 28.2C33.9578 28.6333 33.3078 28.7667 32.5078 28.6C32.9078 28.9667 33.0578 29.45 32.9578 30.05C32.8578 30.65 32.5911 31.2667 32.1578 31.9C31.7245 32.5 31.2078 33.0333 30.6078 33.5C30.0411 33.9667 29.4745 34.2833 28.9078 34.45C28.3411 34.5833 27.8578 34.4667 27.4578 34.1C27.6578 34.8667 27.4745 35.5333 26.9078 36.1C26.3745 36.6667 25.6745 37.0667 24.8078 37.3C23.9411 37.5333 23.1245 37.55 22.3578 37.35C21.5911 37.15 21.1078 36.6667 20.9078 35.9C21.0078 37.7333 20.4245 38.65 19.1578 38.65C17.8911 38.65 16.0078 37.6167 13.5078 35.55ZM21.7578 28.1C20.9911 27.7667 20.5745 27.2667 20.5078 26.6C20.4745 25.9 20.6578 25.2833 21.0578 24.75C21.4911 24.1833 22.0578 23.9167 22.7578 23.95C22.3245 23.7167 22.0078 23.3167 21.8078 22.75C21.6411 22.1833 21.5911 21.5833 21.6578 20.95C21.7245 20.3167 21.9078 19.7833 22.2078 19.35C22.5411 18.8833 22.9911 18.65 23.5578 18.65C22.8911 18.6833 22.3911 18.4167 22.0578 17.85C21.7245 17.25 21.5911 16.6 21.6578 15.9C21.7578 15.1667 22.0411 14.6167 22.5078 14.25C21.8745 14.3167 21.3245 14.0667 20.8578 13.5C20.3911 12.9333 20.2245 12.35 20.3578 11.75C19.9578 11.9833 19.5411 12.05 19.1078 11.95C18.7078 11.8167 18.3911 11.55 18.1578 11.15C18.0245 11.7167 17.6911 12.15 17.1578 12.45C16.6245 12.7167 16.0911 12.7667 15.5578 12.6C15.7245 13.0667 15.7411 13.5667 15.6078 14.1C15.4745 14.6333 15.2245 15.0833 14.8578 15.45C14.4911 15.8167 14.0411 16 13.5078 16C13.9745 16.1333 14.3078 16.4167 14.5078 16.85C14.7411 17.2833 14.8245 17.7667 14.7578 18.3C14.7245 18.8 14.5578 19.2333 14.2578 19.6C13.9911 19.9667 13.5911 20.15 13.0578 20.15C13.7578 20.1167 14.2245 20.2167 14.4578 20.45C14.6911 20.6833 14.6911 20.9333 14.4578 21.2C14.2245 21.4333 13.7578 21.55 13.0578 21.55C13.8578 21.5167 14.4245 21.7167 14.7578 22.15C15.1245 22.55 15.2578 23.0167 15.1578 23.55C15.0911 24.0833 14.7911 24.5 14.2578 24.8C14.8245 24.8667 15.3578 25.2 15.8578 25.8C16.3578 26.4 16.6245 27.0167 16.6578 27.65C17.1245 27.15 17.7911 26.9833 18.6578 27.15C19.5578 27.2833 20.5911 27.6 21.7578 28.1ZM48.3172 35.85C48.1505 36.35 47.8339 36.6833 47.3672 36.85C46.9339 36.9833 46.4672 36.9667 45.9672 36.8C45.5005 36.6333 45.1172 36.3667 44.8172 36C44.5505 35.6 44.5005 35.15 44.6672 34.65C44.3672 34.9167 43.9672 34.9333 43.4672 34.7C42.9672 34.4667 42.4505 34.1 41.9172 33.6C41.4172 33.1 40.9672 32.55 40.5672 31.95C40.2005 31.3167 39.9505 30.7333 39.8172 30.2C39.7172 29.6667 39.8172 29.2833 40.1172 29.05C39.2172 29.1833 38.5672 29.05 38.1672 28.65C37.8005 28.2167 37.7339 27.75 37.9672 27.25C38.2005 26.7167 38.7672 26.3833 39.6672 26.25C39.1672 26.25 38.7839 26.0667 38.5172 25.7C38.2839 25.3333 38.1505 24.9167 38.1172 24.45C38.1172 23.95 38.2339 23.5167 38.4672 23.15C38.7339 22.75 39.1172 22.55 39.6172 22.55C39.0839 22.45 38.7172 22.15 38.5172 21.65C38.3505 21.15 38.3172 20.6167 38.4172 20.05C38.5505 19.45 38.7839 18.95 39.1172 18.55C39.4839 18.15 39.9339 18 40.4672 18.1C39.9005 17.7333 39.5839 17.3 39.5172 16.8C39.4505 16.3 39.5339 15.8667 39.7672 15.5C40.0339 15.1 40.4005 14.85 40.8672 14.75C41.3672 14.6167 41.9005 14.7333 42.4672 15.1C42.1672 14.6667 42.0839 14.25 42.2172 13.85C42.3505 13.4167 42.6005 13.0833 42.9672 12.85C43.3339 12.5833 43.7339 12.4667 44.1672 12.5C44.6005 12.5333 44.9672 12.7667 45.2672 13.2C45.0339 12.5 45.0505 11.9833 45.3172 11.65C45.5839 11.2833 45.9172 11.15 46.3172 11.25C46.7505 11.35 47.1005 11.75 47.3672 12.45C47.2672 11.9167 47.3505 11.5 47.6172 11.2C47.8839 10.9 48.2172 10.7167 48.6172 10.65C49.0505 10.55 49.4505 10.6 49.8172 10.8C50.1839 11 50.4172 11.35 50.5172 11.85C50.5172 11.35 50.7505 10.9833 51.2172 10.75C51.7172 10.4833 52.2839 10.35 52.9172 10.35C53.5505 10.35 54.1005 10.4833 54.5672 10.75C55.0672 10.9833 55.3172 11.35 55.3172 11.85C55.4505 11.15 55.7672 10.6667 56.2672 10.4C56.8005 10.1333 57.3505 10.0667 57.9172 10.2C58.4839 10.3 58.9339 10.5833 59.2672 11.05C59.6339 11.4833 59.7505 12.0667 59.6172 12.8C59.8505 12.3333 60.1839 12.0833 60.6172 12.05C61.0839 12.0167 61.5172 12.1167 61.9172 12.35C62.3505 12.55 62.6505 12.85 62.8172 13.25C63.0172 13.65 62.9839 14.0833 62.7172 14.55C63.2505 14.1833 63.7839 14.1167 64.3172 14.35C64.8505 14.55 65.2839 14.9 65.6172 15.4C65.9839 15.9 66.1839 16.45 66.2172 17.05C66.2505 17.6167 66.0005 18.0667 65.4672 18.4C66.0339 18.3667 66.5005 18.5667 66.8672 19C67.2672 19.4333 67.5505 20 67.7172 20.7C67.9172 21.3667 68.0005 22.0667 67.9672 22.8C67.9339 23.5 67.7672 24.1 67.4672 24.6C67.2005 25.1 66.7839 25.3833 66.2172 25.45C66.9172 25.5833 67.3839 25.9333 67.6172 26.5C67.8505 27.0333 67.9005 27.6333 67.7672 28.3C67.6672 28.9333 67.3839 29.4667 66.9172 29.9C66.4839 30.3333 65.9339 30.4833 65.2672 30.35C65.7672 30.6833 66.0339 31.0833 66.0672 31.55C66.1339 31.9833 66.0339 32.3833 65.7672 32.75C65.5005 33.1167 65.1505 33.3667 64.7172 33.5C64.2839 33.6 63.8172 33.4833 63.3172 33.15C63.6172 33.6167 63.7005 34.0667 63.5672 34.5C63.4339 34.9 63.1672 35.2167 62.7672 35.45C62.4005 35.6833 61.9839 35.7833 61.5172 35.75C61.0839 35.7167 60.7339 35.4667 60.4672 35C60.6672 35.6333 60.5672 36.1333 60.1672 36.5C59.7672 36.8667 59.3005 37.0167 58.7672 36.95C58.2672 36.85 57.9172 36.4667 57.7172 35.8C57.8505 36.6 57.7005 37.15 57.2672 37.45C56.8339 37.7833 56.3505 37.85 55.8172 37.65C55.3172 37.45 55.0172 36.9667 54.9172 36.2C54.9839 37.6333 54.4839 38.35 53.4172 38.35C52.3505 38.35 50.6505 37.5167 48.3172 35.85ZM56.2172 28C55.8505 27.9667 55.5839 27.7 55.4172 27.2C55.2839 26.7 55.2172 26.1167 55.2172 25.45C55.2505 24.75 55.3505 24.1333 55.5172 23.6C55.6839 23.0667 55.9339 22.75 56.2672 22.65C55.9339 22.65 55.6005 22.4167 55.2672 21.95C54.9672 21.4833 54.7172 20.95 54.5172 20.35C54.3505 19.7167 54.2839 19.1667 54.3172 18.7C54.0172 18.9667 53.6505 19.0667 53.2172 19C52.7839 18.9333 52.4505 18.7167 52.2172 18.35C52.1839 18.6167 52.0839 18.7833 51.9172 18.85C51.7505 18.9167 51.5672 18.8833 51.3672 18.75C51.4672 19.2167 51.4339 19.7667 51.2672 20.4C51.1339 21 50.9172 21.5333 50.6172 22C50.3172 22.4667 49.9839 22.7 49.6172 22.7C50.0172 22.8 50.2672 23.0833 50.3672 23.55C50.5005 24.0167 50.4839 24.4833 50.3172 24.95C50.1505 25.3833 49.8505 25.6 49.4172 25.6C49.7839 25.5333 50.1005 25.7333 50.3672 26.2C50.6672 26.6333 50.8672 27.15 50.9672 27.75C51.1005 28.35 51.1172 28.8667 51.0172 29.3C51.4839 29.0333 52.1839 28.8833 53.1172 28.85C54.0505 28.8167 55.0839 28.5333 56.2172 28ZM72.4473 39.95C71.8473 39.95 71.3973 39.6167 71.0973 38.95C70.8306 38.2833 70.6973 37.5167 70.6973 36.65C70.6973 35.7833 70.8306 35.0167 71.0973 34.35C71.3973 33.6833 71.8473 33.35 72.4473 33.35C71.8139 33.35 71.3306 33.1 70.9973 32.6C70.6973 32.1 70.5473 31.5167 70.5473 30.85C70.5473 30.1833 70.6973 29.6 70.9973 29.1C71.3306 28.6 71.8139 28.35 72.4473 28.35C71.7473 28.35 71.2139 28.1833 70.8473 27.85C70.5139 27.4833 70.3473 27.0833 70.3473 26.65C70.3473 26.2167 70.5139 25.8333 70.8473 25.5C71.2139 25.1333 71.7473 24.95 72.4473 24.95C71.7139 24.95 71.2139 24.7833 70.9473 24.45C70.7139 24.1167 70.7139 23.7833 70.9473 23.45C71.2139 23.1167 71.7139 22.95 72.4473 22.95C71.9139 22.95 71.4973 22.7167 71.1973 22.25C70.9306 21.75 70.7973 21.1833 70.7973 20.55C70.7973 19.9167 70.9306 19.3667 71.1973 18.9C71.4973 18.4 71.9139 18.15 72.4473 18.15C71.7473 18.15 71.2139 17.9 70.8473 17.4C70.5139 16.9 70.3473 16.3167 70.3473 15.65C70.3473 14.9833 70.5139 14.4 70.8473 13.9C71.2139 13.4 71.7473 13.15 72.4473 13.15C72.0473 12.5833 71.8806 12.1333 71.9473 11.8C72.0473 11.4667 72.2639 11.3167 72.5973 11.35C72.9639 11.3833 73.3473 11.6833 73.7473 12.25C73.7473 11.5167 73.9473 11.0333 74.3473 10.8C74.7806 10.5667 75.2139 10.5667 75.6473 10.8C76.0806 11.0333 76.2973 11.5167 76.2973 12.25C76.3639 11.75 76.6473 11.4 77.1473 11.2C77.6473 11 78.2139 10.9333 78.8473 11C79.5139 11.0667 80.0639 11.25 80.4973 11.55C80.9639 11.85 81.1806 12.2333 81.1473 12.7C81.3139 12.1 81.6306 11.7167 82.0973 11.55C82.5973 11.3833 83.0806 11.4167 83.5473 11.65C84.0139 11.85 84.2973 12.1833 84.3973 12.65C84.6306 12.15 85.0639 11.75 85.6973 11.45C86.3639 11.1167 87.0306 10.95 87.6973 10.95C88.3639 10.95 88.7973 11.2333 88.9973 11.8C89.0639 11.0667 89.3139 10.5333 89.7473 10.2C90.2139 9.86667 90.7139 9.73333 91.2473 9.8C91.8139 9.83333 92.2806 10.0667 92.6473 10.5C93.0139 10.9 93.1639 11.4667 93.0973 12.2C93.3973 11.8667 93.8639 11.8333 94.4973 12.1C95.1306 12.3667 95.7639 12.7833 96.3973 13.35C97.0306 13.8833 97.5139 14.45 97.8473 15.05C98.1806 15.65 98.2139 16.1167 97.9473 16.45C98.5473 16.3167 99.0473 16.5 99.4473 17C99.8806 17.5 100.181 18.1333 100.347 18.9C100.514 19.6333 100.497 20.3167 100.297 20.95C100.131 21.5833 99.7473 21.9667 99.1473 22.1C99.6473 22.1 100.014 22.3333 100.247 22.8C100.514 23.2667 100.631 23.8167 100.597 24.45C100.597 25.05 100.464 25.5833 100.197 26.05C99.9639 26.4833 99.5973 26.7 99.0973 26.7C99.7639 26.9 100.181 27.3 100.347 27.9C100.547 28.5 100.547 29.15 100.347 29.85C100.181 30.55 99.8639 31.1167 99.3973 31.55C98.9306 31.9833 98.3639 32.1 97.6973 31.9C98.2306 32.3667 98.5139 32.8667 98.5473 33.4C98.5806 33.9 98.4306 34.3333 98.0973 34.7C97.7973 35.0333 97.3806 35.2333 96.8473 35.3C96.3473 35.3333 95.8306 35.1167 95.2973 34.65C95.4306 35.15 95.1973 35.6167 94.5973 36.05C93.9973 36.45 93.2639 36.75 92.3973 36.95C91.5306 37.15 90.7306 37.2 89.9973 37.1C89.2639 37 88.8306 36.7 88.6973 36.2C88.4639 36.7 88.0639 36.9667 87.4973 37C86.9639 37.0667 86.4139 36.9667 85.8473 36.7C85.3139 36.4333 84.8973 36.0833 84.5973 35.65C84.4306 35.95 84.1973 36.1833 83.8973 36.35C83.5973 36.5167 83.2639 36.5833 82.8973 36.55C83.2306 37.0833 83.4139 37.7833 83.4473 38.65C83.4806 39.5167 83.3639 40.2833 83.0973 40.95C82.8639 41.65 82.4639 42 81.8973 42C82.6306 41.9333 83.1973 42.0667 83.5973 42.4C83.9973 42.7333 84.2139 43.1333 84.2473 43.6C84.2806 44.0667 84.1306 44.4833 83.7973 44.85C83.4639 45.25 82.9306 45.4833 82.1973 45.55C82.1306 46.2833 81.8306 46.75 81.2973 46.95C80.7973 47.15 80.3139 47.1 79.8473 46.8C79.3806 46.5333 79.1806 46.0333 79.2473 45.3C79.2139 45.8667 78.9639 46.2833 78.4973 46.55C78.0639 46.85 77.5139 46.9667 76.8473 46.9C76.1806 46.8667 75.5139 46.6 74.8473 46.1C74.1806 45.6 73.6139 44.85 73.1473 43.85C72.7139 42.85 72.4806 41.55 72.4473 39.95ZM88.9973 27.55C88.6973 27.5167 88.4806 27.2833 88.3473 26.85C88.2139 26.3833 88.1473 25.85 88.1473 25.25C88.1806 24.65 88.2639 24.1 88.3973 23.6C88.5639 23.0667 88.7806 22.7 89.0473 22.5C88.7473 22.5 88.3973 22.3333 87.9973 22C87.5973 21.6333 87.2306 21.2 86.8973 20.7C86.5639 20.2 86.3473 19.7333 86.2473 19.3C86.0139 19.6667 85.6973 19.8667 85.2973 19.9C84.8973 19.9 84.5639 19.7333 84.2973 19.4C84.2306 19.8 84.0139 20.1833 83.6473 20.55C83.3139 20.8833 82.9639 21.0333 82.5973 21C82.8973 21.2333 82.9806 21.5167 82.8473 21.85C82.7139 22.1833 82.3973 22.3167 81.8973 22.25C82.2639 22.25 82.5473 22.4667 82.7473 22.9C82.9473 23.3 83.0639 23.8 83.0973 24.4C83.1639 24.9667 83.1139 25.5 82.9473 26C82.8139 26.5 82.5973 26.8167 82.2973 26.95C82.6306 26.8833 82.8806 27 83.0473 27.3C83.2473 27.6 83.2973 27.8833 83.1973 28.15C83.5306 27.9833 83.9973 27.9167 84.5973 27.95C85.2306 27.95 85.9306 27.95 86.6973 27.95C87.4639 27.95 88.2306 27.8167 88.9973 27.55ZM112.254 35.85C112.054 36.75 111.754 37.3 111.354 37.5C110.954 37.7 110.621 37.6167 110.354 37.25C110.121 36.8833 110.104 36.2667 110.304 35.4C110.071 35.9 109.687 36.1833 109.154 36.25C108.621 36.2833 108.087 36.1833 107.554 35.95C107.054 35.6833 106.654 35.3333 106.354 34.9C106.087 34.4333 106.071 33.9333 106.304 33.4C105.771 33.2333 105.421 32.95 105.254 32.55C105.121 32.1167 105.121 31.7 105.254 31.3C105.421 30.8667 105.687 30.5333 106.054 30.3C106.454 30.0667 106.921 30.05 107.454 30.25C107.454 29.75 107.654 29.3833 108.054 29.15C108.454 28.8833 108.904 28.75 109.404 28.75C109.937 28.75 110.404 28.8833 110.804 29.15C111.204 29.3833 111.404 29.75 111.404 30.25C111.504 29.75 111.854 29.4 112.454 29.2C113.054 29 113.754 28.9333 114.554 29C115.354 29.0667 116.071 29.25 116.704 29.55C116.737 29.3167 116.837 29.1333 117.004 29C116.837 28.7 116.837 28.3333 117.004 27.9C116.637 28.2 116.104 28.35 115.404 28.35C114.704 28.35 113.987 28.2333 113.254 28C112.554 27.7667 111.987 27.45 111.554 27.05C111.121 26.65 110.954 26.2167 111.054 25.75C110.821 26.4167 110.487 26.8 110.054 26.9C109.621 27 109.271 26.8833 109.004 26.55C108.737 26.1833 108.721 25.65 108.954 24.95C108.587 25.2167 108.154 25.2167 107.654 24.95C107.187 24.65 106.704 24.2167 106.204 23.65C105.737 23.0833 105.337 22.4667 105.004 21.8C104.671 21.1333 104.471 20.5167 104.404 19.95C104.337 19.3833 104.487 18.9833 104.854 18.75C104.487 18.55 104.321 18.1833 104.354 17.65C104.421 17.1167 104.604 16.5667 104.904 16C105.237 15.4333 105.604 14.9833 106.004 14.65C106.437 14.3167 106.837 14.25 107.204 14.45C106.871 13.8833 106.837 13.3833 107.104 12.95C107.404 12.5167 107.804 12.2833 108.304 12.25C108.804 12.1833 109.237 12.4333 109.604 13C109.504 12.4667 109.654 12 110.054 11.6C110.487 11.2 111.037 10.8833 111.704 10.65C112.371 10.4167 113.054 10.3 113.754 10.3C114.487 10.2667 115.121 10.3667 115.654 10.6C116.187 10.8333 116.504 11.2167 116.604 11.75C116.671 11.1167 116.921 10.6833 117.354 10.45C117.821 10.1833 118.304 10.0833 118.804 10.15C119.337 10.2167 119.787 10.4333 120.154 10.8C120.521 11.1667 120.654 11.65 120.554 12.25C120.754 11.6167 121.037 11.25 121.404 11.15C121.804 11.0167 122.137 11.1 122.404 11.4C122.671 11.7 122.704 12.1667 122.504 12.8C122.771 12.3 123.187 12.05 123.754 12.05C124.321 12.05 124.871 12.2 125.404 12.5C125.971 12.8 126.387 13.2 126.654 13.7C126.954 14.2 126.954 14.7 126.654 15.2C127.421 15.4333 127.854 15.8 127.954 16.3C128.087 16.8 127.954 17.2333 127.554 17.6C127.187 17.9333 126.637 17.9833 125.904 17.75C125.904 18.35 125.671 18.8 125.204 19.1C124.737 19.3667 124.204 19.5 123.604 19.5C123.004 19.5 122.471 19.3667 122.004 19.1C121.571 18.8 121.354 18.35 121.354 17.75C121.254 18.15 120.954 18.4167 120.454 18.55C119.987 18.6833 119.437 18.7167 118.804 18.65C118.171 18.55 117.571 18.3833 117.004 18.15C117.037 18.5833 116.887 18.9833 116.554 19.35C117.287 19.5167 117.971 19.8167 118.604 20.25C119.237 20.6833 119.471 21.1167 119.304 21.55C119.404 21.0833 119.687 20.7667 120.154 20.6C120.621 20.4333 121.121 20.4167 121.654 20.55C122.187 20.65 122.637 20.8667 123.004 21.2C123.371 21.5333 123.504 21.9333 123.404 22.4C123.637 22.1333 124.004 22.0833 124.504 22.25C125.037 22.3833 125.587 22.6667 126.154 23.1C126.754 23.5 127.304 23.9667 127.804 24.5C128.304 25 128.671 25.5 128.904 26C129.137 26.4667 129.137 26.8333 128.904 27.1C129.604 27.0667 130.121 27.2167 130.454 27.55C130.787 27.8833 130.954 28.2667 130.954 28.7C130.987 29.1333 130.837 29.5167 130.504 29.85C130.204 30.1833 129.721 30.3667 129.054 30.4C129.454 30.7 129.604 31.1167 129.504 31.65C129.437 32.1833 129.204 32.7 128.804 33.2C128.437 33.7 128.004 34.0667 127.504 34.3C127.037 34.5 126.587 34.45 126.154 34.15C126.421 34.75 126.437 35.2667 126.204 35.7C125.971 36.1333 125.621 36.45 125.154 36.65C124.687 36.85 124.204 36.8667 123.704 36.7C123.237 36.5333 122.887 36.1667 122.654 35.6C122.721 36.2 122.421 36.6833 121.754 37.05C121.121 37.4167 120.271 37.6333 119.204 37.7C118.137 37.7667 116.987 37.65 115.754 37.35C114.554 37.05 113.387 36.55 112.254 35.85ZM135.296 22.25C134.829 22.25 134.463 22.0167 134.196 21.55C133.929 21.05 133.746 20.45 133.646 19.75C133.546 19.0167 133.546 18.3 133.646 17.6C133.746 16.9 133.929 16.3167 134.196 15.85C134.463 15.35 134.829 15.1 135.296 15.1C134.629 15.1 134.129 14.9167 133.796 14.55C133.463 14.15 133.296 13.7 133.296 13.2C133.296 12.7 133.463 12.2667 133.796 11.9C134.129 11.5 134.629 11.3 135.296 11.3C134.563 11.3 134.063 11.0333 133.796 10.5C133.563 9.96667 133.563 9.43333 133.796 8.9C134.063 8.36667 134.563 8.1 135.296 8.1C134.929 8 134.713 7.68333 134.646 7.15C134.613 6.58333 134.696 5.98333 134.896 5.35C135.096 4.68333 135.363 4.15 135.696 3.75C136.029 3.31667 136.396 3.15 136.796 3.25C136.796 2.58333 137.013 2.08333 137.446 1.75C137.913 1.41666 138.446 1.25 139.046 1.25C139.646 1.25 140.179 1.41666 140.646 1.75C141.113 2.08333 141.346 2.58333 141.346 3.25C141.313 2.38333 141.546 1.8 142.046 1.5C142.546 1.2 143.046 1.2 143.546 1.5C144.046 1.76667 144.296 2.35 144.296 3.25C144.996 3.25 145.513 3.56667 145.846 4.2C146.179 4.8 146.329 5.5 146.296 6.3C146.296 7.1 146.113 7.81666 145.746 8.45C145.413 9.05 144.896 9.33333 144.196 9.3C144.863 9.3 145.346 9.53333 145.646 10C145.979 10.4333 146.146 10.9333 146.146 11.5C146.146 12.0667 145.979 12.5833 145.646 13.05C145.346 13.4833 144.863 13.7 144.196 13.7C144.896 13.7 145.413 14.0333 145.746 14.7C146.113 15.3667 146.296 16.1333 146.296 17C146.296 17.8667 146.113 18.6333 145.746 19.3C145.413 19.9333 144.896 20.25 144.196 20.25C144.463 20.65 144.496 21.05 144.296 21.45C144.129 21.85 143.846 22.1833 143.446 22.45C143.046 22.7167 142.613 22.8667 142.146 22.9C141.713 22.9 141.379 22.7167 141.146 22.35C141.146 22.8833 140.846 23.2833 140.246 23.55C139.679 23.7833 139.013 23.9 138.246 23.9C137.479 23.9 136.796 23.7667 136.196 23.5C135.629 23.2 135.329 22.7833 135.296 22.25ZM135.296 34.45C134.629 34.45 134.129 34.25 133.796 33.85C133.463 33.4167 133.296 32.9333 133.296 32.4C133.296 31.8333 133.463 31.35 133.796 30.95C134.129 30.5167 134.629 30.3 135.296 30.3C134.863 30.0333 134.629 29.6667 134.596 29.2C134.596 28.7 134.729 28.2333 134.996 27.8C135.263 27.3333 135.613 27 136.046 26.8C136.479 26.5667 136.929 26.5833 137.396 26.85C137.396 26.3833 137.713 26.0333 138.346 25.8C138.979 25.5333 139.713 25.4 140.546 25.4C141.379 25.4 142.113 25.5333 142.746 25.8C143.379 26.0333 143.696 26.3833 143.696 26.85C144.763 26.2833 145.363 26.15 145.496 26.45C145.663 26.7167 145.229 27.15 144.196 27.75C144.863 27.75 145.363 28.0667 145.696 28.7C146.029 29.3 146.196 30 146.196 30.8C146.196 31.6 146.029 32.3167 145.696 32.95C145.363 33.55 144.863 33.85 144.196 33.85C144.429 34.3833 144.396 34.8667 144.096 35.3C143.829 35.7333 143.429 36.0833 142.896 36.35C142.363 36.5833 141.829 36.6667 141.296 36.6C140.763 36.5333 140.379 36.25 140.146 35.75C140.146 36.45 139.896 36.9667 139.396 37.3C138.929 37.6333 138.379 37.7667 137.746 37.7C137.113 37.6333 136.546 37.3333 136.046 36.8C135.579 36.2667 135.329 35.4833 135.296 34.45Z" fill="white"/>
</svg>
