<svg width="186" height="32" viewBox="0 0 186 32" fill="none" xmlns="http://www.w3.org/2000/svg">
<path fill-rule="evenodd" clip-rule="evenodd" d="M6.20074 4.51851C5.16351 5.21876 4.22557 6.04669 3.41136 6.97868C6.73861 6.68043 10.9658 7.16743 15.8734 9.53668C21.1142 12.0666 25.3343 12.1522 28.2712 11.6052C28.0047 10.8261 27.6692 10.0774 27.2718 9.36567C23.9098 9.70804 19.5996 9.25486 14.5765 6.82999C11.3868 5.29013 8.57513 4.65581 6.20074 4.51851ZM25.3079 6.66665C22.6528 3.8025 18.7945 2 14.5 2C13.2388 2 12.0152 2.15548 10.8487 2.44764C12.4286 2.86386 14.107 3.47279 15.8734 4.32559C19.5511 6.10097 22.7261 6.67261 25.3079 6.66665ZM28.8992 14.3397C25.351 15.0161 20.4514 14.8772 14.5765 12.0411C9.08423 9.38961 4.71282 9.423 1.76458 10.0556C1.6124 10.0882 1.46381 10.1225 1.3188 10.1582C0.932801 10.9687 0.624685 11.8211 0.403609 12.7061C0.63973 12.6452 0.883725 12.5873 1.13547 12.5333C4.71219 11.7659 9.7658 11.7992 15.8734 14.7478C21.3658 17.3992 25.7372 17.3658 28.6855 16.7332C28.7865 16.7116 28.886 16.6892 28.9839 16.6661C28.9946 16.4454 29 16.2233 29 16C29 15.4382 28.9658 14.8842 28.8992 14.3397ZM28.5105 19.6206C24.9968 20.2137 20.2398 19.9861 14.5765 17.2522C9.08423 14.6007 4.71282 14.6341 1.76458 15.2667C1.11016 15.407 0.521449 15.578 0.00212425 15.7586C0.000708326 15.8389 0 15.9194 0 16C0 23.732 6.49187 30 14.5 30C21.2114 30 26.8578 25.5976 28.5105 19.6206Z" fill="white"/>
<path d="M40.1904 6.91016H45.0947L50.3945 19.8564H50.6055L55.9053 6.91016H60.8096V26H56.96V13.502H56.8018L51.8184 25.9209H49.1816L44.1982 13.4492H44.04V26H40.1904V6.91016ZM70.4336 26.29C66.0566 26.29 63.3672 23.4424 63.3672 18.9072C63.3672 14.4775 66.083 11.498 70.2754 11.498C74.0459 11.498 76.999 13.8711 76.999 18.749V19.8564H67.2168C67.2168 22.0186 68.5088 23.3633 70.5127 23.3633C71.8311 23.3633 72.7803 22.7832 73.1758 21.9131H76.8936C76.3398 24.5498 73.9668 26.29 70.4336 26.29ZM67.2168 17.4043H73.3076C73.3076 15.6641 72.0947 14.4248 70.3545 14.4248C68.5615 14.4248 67.2827 15.7563 67.2168 17.4043ZM84.7246 26.2373C81.4551 26.2373 78.8975 23.627 78.8975 18.8545C78.8975 13.9502 81.5605 11.498 84.7246 11.498C87.124 11.498 88.2578 12.9219 88.7852 14.082H88.917V6.91016H92.8193V26H88.9697V23.7061H88.7852C88.2314 24.8926 87.0449 26.2373 84.7246 26.2373ZM85.9375 23.126C87.8887 23.126 88.9961 21.4121 88.9961 18.8281C88.9961 16.2441 87.8887 14.6094 85.9375 14.6094C83.96 14.6094 82.9053 16.3232 82.9053 18.8281C82.9053 21.3594 83.96 23.126 85.9375 23.126ZM95.957 26V11.6826H99.8594V26H95.957ZM97.9082 9.81055C96.7217 9.81055 95.7725 8.91406 95.7725 7.83301C95.7725 6.72559 96.7217 5.8291 97.9082 5.8291C99.0684 5.8291 100.018 6.72559 100.018 7.83301C100.018 8.91406 99.0684 9.81055 97.9082 9.81055ZM102.206 21.9922C102.206 18.8018 104.79 17.7471 107.532 17.5889C108.561 17.5229 110.485 17.4307 111.092 17.4043V16.2441C111.065 15.0576 110.248 14.3457 108.798 14.3457C107.479 14.3457 106.636 14.9521 106.425 15.9277H102.707C102.944 13.4492 105.106 11.498 108.903 11.498C112.015 11.498 114.968 12.8955 114.968 16.3496V26H111.276V24.0225H111.171C110.459 25.3408 109.114 26.2637 106.979 26.2637C104.236 26.2637 102.206 24.8398 102.206 21.9922ZM105.95 21.8867C105.95 22.9941 106.847 23.5742 108.086 23.5742C109.853 23.5742 111.118 22.3877 111.092 20.8848V19.8301C110.499 19.8564 108.837 19.9487 108.165 20.0146C106.82 20.1465 105.95 20.7793 105.95 21.8867ZM120.953 26L115.495 6.91016H119.819L123.036 20.252H123.194L126.701 6.91016H130.419L133.926 20.2783H134.084L137.301 6.91016H141.625L136.167 26H132.291L128.652 13.3965H128.494L124.829 26H120.953ZM141.335 21.9922C141.335 18.8018 143.919 17.7471 146.661 17.5889C147.689 17.5229 149.614 17.4307 150.221 17.4043V16.2441C150.194 15.0576 149.377 14.3457 147.927 14.3457C146.608 14.3457 145.765 14.9521 145.554 15.9277H141.836C142.073 13.4492 144.235 11.498 148.032 11.498C151.144 11.498 154.097 12.8955 154.097 16.3496V26H150.405V24.0225H150.3C149.588 25.3408 148.243 26.2637 146.107 26.2637C143.365 26.2637 141.335 24.8398 141.335 21.9922ZM145.079 21.8867C145.079 22.9941 145.976 23.5742 147.215 23.5742C148.981 23.5742 150.247 22.3877 150.221 20.8848V19.8301C149.627 19.8564 147.966 19.9487 147.294 20.0146C145.949 20.1465 145.079 20.7793 145.079 21.8867ZM169.838 11.6826L164.802 26H160.425L155.415 11.6826H159.528L162.534 21.9658H162.692L165.698 11.6826H169.838ZM177.748 26.29C173.371 26.29 170.682 23.4424 170.682 18.9072C170.682 14.4775 173.397 11.498 177.59 11.498C181.36 11.498 184.313 13.8711 184.313 18.749V19.8564H174.531C174.531 22.0186 175.823 23.3633 177.827 23.3633C179.146 23.3633 180.095 22.7832 180.49 21.9131H184.208C183.654 24.5498 181.281 26.29 177.748 26.29ZM174.531 17.4043H180.622C180.622 15.6641 179.409 14.4248 177.669 14.4248C175.876 14.4248 174.597 15.7563 174.531 17.4043Z" fill="white"/>
</svg>
